<svg width="162" height="42" viewBox="0 0 162 42" fill="none" xmlns="http://www.w3.org/2000/svg">
<path d="M63.6133 11.0625C64.6758 11.0625 65.625 11.293 66.4609 11.7539C67.3047 12.2148 67.9609 12.8555 68.4297 13.6758C68.9062 14.4883 69.1445 15.4062 69.1445 16.4297C69.1445 17.5078 68.9102 18.4648 68.4414 19.3008C67.9727 20.1289 67.3203 20.7734 66.4844 21.2344C65.6562 21.6875 64.7148 21.9141 63.6602 21.9141H59.8164V27H56.8984V11.0625H63.6133ZM63.5195 19.3125C64.0195 19.3125 64.4766 19.1875 64.8906 18.9375C65.3047 18.6797 65.6289 18.332 65.8633 17.8945C66.1055 17.457 66.2266 16.9688 66.2266 16.4297C66.2266 15.9453 66.1055 15.4922 65.8633 15.0703C65.6211 14.6484 65.2891 14.3086 64.8672 14.0508C64.4531 13.793 63.9961 13.6641 63.4961 13.6641H59.8164V19.3125H63.5195Z" fill="#012345"/>
<path d="M82.1172 20.7656C82.1172 21.0312 82.0977 21.3516 82.0586 21.7266H72.6484C72.7422 22.3672 72.9453 22.9219 73.2578 23.3906C73.5781 23.8594 73.9727 24.2188 74.4414 24.4688C74.918 24.7109 75.4336 24.832 75.9883 24.832C76.6914 24.832 77.2656 24.6953 77.7109 24.4219C78.1641 24.1406 78.4961 23.7383 78.707 23.2148H81.8008C81.5898 23.957 81.2188 24.6445 80.6875 25.2773C80.1562 25.9102 79.4883 26.418 78.6836 26.8008C77.8867 27.1758 77.0078 27.3633 76.0469 27.3633C74.8672 27.3633 73.8008 27.0781 72.8477 26.5078C71.8945 25.9375 71.1484 25.1641 70.6094 24.1875C70.0703 23.2109 69.8008 22.1406 69.8008 20.9766C69.8008 19.8125 70.0703 18.7422 70.6094 17.7656C71.1484 16.7891 71.8945 16.0156 72.8477 15.4453C73.8008 14.875 74.8672 14.5898 76.0469 14.5898C77.2266 14.5898 78.2773 14.8711 79.1992 15.4336C80.1211 15.9961 80.8359 16.75 81.3438 17.6953C81.8594 18.6328 82.1172 19.6562 82.1172 20.7656ZM79.2227 19.5352C79.1836 19.0898 79.0156 18.6797 78.7188 18.3047C78.4219 17.9219 78.0352 17.6211 77.5586 17.4023C77.0898 17.1758 76.582 17.0625 76.0352 17.0625C75.2773 17.0625 74.5977 17.2734 73.9961 17.6953C73.4023 18.1094 72.9922 18.7227 72.7656 19.5352H79.2227Z" fill="#012345"/>
<path d="M87.1328 14.9531V16.9805C87.5703 16.2461 88.1523 15.668 88.8789 15.2461C89.6133 14.8164 90.4102 14.6016 91.2695 14.6016C92.3867 14.6016 93.3906 14.8867 94.2812 15.457C95.1797 16.0273 95.8789 16.8008 96.3789 17.7773C96.8867 18.7461 97.1406 19.8125 97.1406 20.9766C97.1406 22.1484 96.8867 23.2227 96.3789 24.1992C95.8711 25.168 95.1719 25.9375 94.2812 26.5078C93.3984 27.0781 92.4062 27.3633 91.3047 27.3633C90.4375 27.3633 89.6406 27.1562 88.9141 26.7422C88.1875 26.3203 87.6211 25.7578 87.2148 25.0547L87.2734 26.4492V31.1133H84.4375V14.9531H87.1328ZM90.7891 24.75C91.4297 24.75 92.0195 24.5977 92.5586 24.293C93.0977 23.9805 93.5273 23.5391 93.8477 22.9688C94.168 22.3984 94.3281 21.7344 94.3281 20.9766C94.3281 20.2422 94.168 19.5898 93.8477 19.0195C93.5352 18.4492 93.1055 18.0078 92.5586 17.6953C92.0195 17.375 91.4258 17.2148 90.7773 17.2148C90.1367 17.2148 89.543 17.3828 88.9961 17.7188C88.457 18.0469 88.0273 18.5 87.707 19.0781C87.3945 19.6562 87.2383 20.2891 87.2383 20.9766C87.2383 21.6953 87.3984 22.3438 87.7188 22.9219C88.0391 23.4922 88.4688 23.9414 89.0078 24.2695C89.5547 24.5898 90.1484 24.75 90.7891 24.75Z" fill="#012345"/>
<path d="M111.086 20.7656C111.086 21.0312 111.066 21.3516 111.027 21.7266H101.617C101.711 22.3672 101.914 22.9219 102.227 23.3906C102.547 23.8594 102.941 24.2188 103.41 24.4688C103.887 24.7109 104.402 24.832 104.957 24.832C105.66 24.832 106.234 24.6953 106.68 24.4219C107.133 24.1406 107.465 23.7383 107.676 23.2148H110.77C110.559 23.957 110.188 24.6445 109.656 25.2773C109.125 25.9102 108.457 26.418 107.652 26.8008C106.855 27.1758 105.977 27.3633 105.016 27.3633C103.836 27.3633 102.77 27.0781 101.816 26.5078C100.863 25.9375 100.117 25.1641 99.5781 24.1875C99.0391 23.2109 98.7695 22.1406 98.7695 20.9766C98.7695 19.8125 99.0391 18.7422 99.5781 17.7656C100.117 16.7891 100.863 16.0156 101.816 15.4453C102.77 14.875 103.836 14.5898 105.016 14.5898C106.195 14.5898 107.246 14.8711 108.168 15.4336C109.09 15.9961 109.805 16.75 110.312 17.6953C110.828 18.6328 111.086 19.6562 111.086 20.7656ZM108.191 19.5352C108.152 19.0898 107.984 18.6797 107.688 18.3047C107.391 17.9219 107.004 17.6211 106.527 17.4023C106.059 17.1758 105.551 17.0625 105.004 17.0625C104.246 17.0625 103.566 17.2734 102.965 17.6953C102.371 18.1094 101.961 18.7227 101.734 19.5352H108.191Z" fill="#012345"/>
<path d="M113.406 10.4883H116.242V27H113.406V10.4883Z" fill="#012345"/>
<path d="M124.387 27.3633C123.324 27.3633 122.359 27.0781 121.492 26.5078C120.625 25.9375 119.945 25.1641 119.453 24.1875C118.961 23.2109 118.715 22.1406 118.715 20.9766C118.715 19.8203 118.961 18.7539 119.453 17.7773C119.953 16.8008 120.633 16.0273 121.492 15.457C122.359 14.8789 123.32 14.5898 124.375 14.5898C125.359 14.5898 126.23 14.8047 126.988 15.2344C127.754 15.6562 128.332 16.2422 128.723 16.9922V14.9531H131.418V27H128.723V24.9727C128.332 25.7227 127.754 26.3086 126.988 26.7305C126.23 27.1523 125.363 27.3633 124.387 27.3633ZM125.066 24.7383C125.715 24.7383 126.309 24.5742 126.848 24.2461C127.395 23.9102 127.824 23.457 128.137 22.8867C128.449 22.3086 128.605 21.6719 128.605 20.9766C128.605 20.2891 128.445 19.6602 128.125 19.0898C127.812 18.5117 127.387 18.0547 126.848 17.7188C126.309 17.3828 125.715 17.2148 125.066 17.2148C124.418 17.2148 123.824 17.375 123.285 17.6953C122.746 18.0078 122.316 18.4492 121.996 19.0195C121.684 19.5898 121.527 20.2422 121.527 20.9766C121.527 21.7344 121.688 22.3984 122.008 22.9688C122.328 23.5391 122.758 23.9766 123.297 24.2812C123.836 24.5859 124.426 24.7383 125.066 24.7383Z" fill="#012345"/>
<path d="M137.453 14.9531V16.8281C137.805 16.1562 138.348 15.6172 139.082 15.2109C139.824 14.7969 140.652 14.5898 141.566 14.5898C143.168 14.5898 144.375 15.0977 145.188 16.1133C146 17.1289 146.406 18.5938 146.406 20.5078V27H143.57V20.5664C143.57 19.4102 143.328 18.5625 142.844 18.0234C142.359 17.4766 141.672 17.2031 140.781 17.2031C140.211 17.2031 139.684 17.3477 139.199 17.6367C138.715 17.918 138.324 18.3359 138.027 18.8906C137.738 19.4375 137.594 20.0898 137.594 20.8477V27H134.758V14.9531H137.453Z" fill="#012345"/>
<path d="M161.102 20.7656C161.102 21.0312 161.082 21.3516 161.043 21.7266H151.633C151.727 22.3672 151.93 22.9219 152.242 23.3906C152.562 23.8594 152.957 24.2188 153.426 24.4688C153.902 24.7109 154.418 24.832 154.973 24.832C155.676 24.832 156.25 24.6953 156.695 24.4219C157.148 24.1406 157.48 23.7383 157.691 23.2148H160.785C160.574 23.957 160.203 24.6445 159.672 25.2773C159.141 25.9102 158.473 26.418 157.668 26.8008C156.871 27.1758 155.992 27.3633 155.031 27.3633C153.852 27.3633 152.785 27.0781 151.832 26.5078C150.879 25.9375 150.133 25.1641 149.594 24.1875C149.055 23.2109 148.785 22.1406 148.785 20.9766C148.785 19.8125 149.055 18.7422 149.594 17.7656C150.133 16.7891 150.879 16.0156 151.832 15.4453C152.785 14.875 153.852 14.5898 155.031 14.5898C156.211 14.5898 157.262 14.8711 158.184 15.4336C159.105 15.9961 159.82 16.75 160.328 17.6953C160.844 18.6328 161.102 19.6562 161.102 20.7656ZM158.207 19.5352C158.168 19.0898 158 18.6797 157.703 18.3047C157.406 17.9219 157.02 17.6211 156.543 17.4023C156.074 17.1758 155.566 17.0625 155.02 17.0625C154.262 17.0625 153.582 17.2734 152.98 17.6953C152.387 18.1094 151.977 18.7227 151.75 19.5352H158.207Z" fill="#012345"/>
<circle cx="8" cy="19" r="8" fill="#012345"/>
<circle cx="26" cy="4" r="4" fill="#4959FF"/>
<path d="M7 42C10.0204 42 13.0112 41.4051 15.8017 40.2492C18.5922 39.0934 21.1277 37.3992 23.2635 35.2635C25.3992 33.1277 27.0934 30.5922 28.2492 27.8017C29.4051 25.0112 30 22.0204 30 19H21.72C21.72 20.9331 21.3393 22.8472 20.5995 24.6331C19.8598 26.419 18.7755 28.0417 17.4086 29.4086C16.0417 30.7755 14.419 31.8598 12.6331 32.5995C10.8472 33.3393 8.93306 33.72 7 33.72L7 42Z" fill="#4959FF"/>
</svg>
